<?xml version="1.0" encoding="UTF-8" standalone="no"?>
<!-- Created with Inkscape (http://www.inkscape.org/) -->

<svg
   width="146.77576mm"
   height="160.52667mm"
   viewBox="0 0 146.77576 160.52667"
   version="1.1"
   id="svg5"
   inkscape:version="1.1.2 (b8e25be833, 2022-02-05)"
   sodipodi:docname="Applegreen (Favicon).svg"
   xmlns:inkscape="http://www.inkscape.org/namespaces/inkscape"
   xmlns:sodipodi="http://sodipodi.sourceforge.net/DTD/sodipodi-0.dtd"
   xmlns="http://www.w3.org/2000/svg"
   xmlns:svg="http://www.w3.org/2000/svg">
  <sodipodi:namedview
     id="namedview7"
     pagecolor="#ffffff"
     bordercolor="#666666"
     borderopacity="1.0"
     inkscape:pageshadow="2"
     inkscape:pageopacity="0.0"
     inkscape:pagecheckerboard="0"
     inkscape:document-units="mm"
     showgrid="false"
     inkscape:zoom="0.64052329"
     inkscape:cx="188.12743"
     inkscape:cy="320.05081"
     inkscape:window-width="1920"
     inkscape:window-height="1017"
     inkscape:window-x="-8"
     inkscape:window-y="-8"
     inkscape:window-maximized="1"
     inkscape:current-layer="layer1" />
  <defs
     id="defs2" />
  <g
     inkscape:label="Layer 1"
     inkscape:groupmode="layer"
     id="layer1"
     transform="translate(-55.491123,-63.486315)">
    <g
       id="g834"
       transform="matrix(0.26458333,0,0,0.26458333,44.225959,59.252982)">
	<g
   id="g832">
		<path
   fill="#80ba27"
   d="m 320,104.719 c -17.066,0 -33.729,1.757 -49.828,5.125 -0.822,0.096 -1.499,0.241 -2.192,0.435 24.817,47.603 25.462,93.548 23.818,116.173 -0.645,9.153 -1.757,14.536 -1.757,14.536 0,0 -5.608,0.354 -14.987,-0.565 -26.074,-2.385 -81.3,-13.778 -127.019,-65.798 -0.806,0.87 -1.805,1.773 -2.643,2.61 C 101.591,221.197 74.55,281.774 74.55,348.57 74.552,483.213 184.457,592.36 320,592.36 c 26.767,0 52.454,-4.206 76.611,-12.021 26.799,-8.767 51.649,-22.045 73.533,-38.821 11.264,-8.734 21.82,-18.42 31.424,-28.926 h -20.708 -0.016 v -33.939 h -1.015 c -17.13,27.283 -39.353,41.141 -66.748,41.141 -17.404,0 -32.907,-5.398 -44.8,-14.922 -15.261,-12.184 -24.575,-31.134 -24.575,-53.969 0,-43.737 34.647,-72.454 90.55,-72.454 12.956,0 26.912,1.563 41.399,5.109 v -21.095 c 0,-22.625 -18.097,-38.079 -49.151,-38.079 -17.646,0 -34.148,6.268 -49.231,18.581 L 365.461,328.832 353.6,314.731 h -0.081 c 13.778,-12.682 29.523,-20.595 47.668,-24.286 h 0.306 c 0.355,-0.113 0.596,-0.113 0.886,-0.177 8.057,-1.58 16.582,-2.32 25.623,-2.32 h 0.016 c 58.481,0 89.583,30.827 89.583,88.906 v 116.109 l -0.064,0.081 v 0.225 c 11.667,-15.712 21.546,-32.874 29.12,-51.133 3.11,-7.398 5.801,-14.987 8.219,-22.723 6.833,-22.416 10.555,-46.169 10.555,-70.842 C 565.432,213.915 455.592,104.719 320,104.719"
   id="path824" />

		<path
   fill="#82bb2c"
   d="m 423.884,485.307 c 12.521,0 23.85,-4.786 32.681,-13.311 11.699,-11.103 19.08,-28.604 19.08,-49.908 v -8.251 c -15.003,-4.044 -28.491,-5.592 -39.337,-5.592 -14.455,0 -26.493,3.787 -34.889,10.572 -8.396,6.897 -13.198,16.663 -13.198,28.427 0,2.176 0.145,4.159 0.403,6.108 2.321,19.579 16.422,31.955 35.26,31.955"
   id="path826" />

		<path
   fill="#5d720b"
   d="M 236.323,113.056 C 195.923,64.599 131.43,51.561 131.43,51.561 c 0,0 1.064,65.379 41.657,113.724 40.384,48.329 104.78,61.398 104.78,61.398 0,0 -1.047,-65.265 -41.544,-113.627"
   id="path828" />

		<path
   fill="#ffffff"
   d="m 319.884,71.968 c -25.268,0 -49.828,3.416 -73.13,9.684 C 225.031,60.284 200.584,46.586 180.505,37.739 156.719,27.232 138.751,23.525 137.301,23.219 L 101.8,16 l 0.564,36.034 c 0,1.434 0.338,19.692 6.365,44.88 3.674,15.454 9.46,33.52 18.903,51.907 -52.406,50.215 -85.055,120.509 -85.055,198.505 0,152.078 124.166,275.389 277.307,275.389 153.254,0 277.436,-123.312 277.436,-275.389 0,-152.077 -124.182,-275.358 -277.436,-275.358 m -83.572,41.093 c 40.578,48.361 41.577,113.626 41.577,113.626 0,0 -64.428,-13.069 -104.796,-61.414 -40.61,-48.28 -41.69,-113.707 -41.69,-113.707 0,0 64.524,13.037 104.909,61.495 m 310.359,329.053 c -7.622,18.274 -17.453,35.437 -29.136,51.165 v -0.242 l 0.048,-0.064 V 376.848 c 0,-58.079 -31.118,-88.907 -89.583,-88.907 h -0.016 c -9.057,0 -17.549,0.806 -25.623,2.32 -0.274,0.065 -0.516,0.065 -0.854,0.178 h -0.322 c -18.097,3.689 -33.89,11.618 -47.604,24.252 h 0.016 l 11.861,14.15 11.877,14.101 c 15.003,-12.28 31.537,-18.548 49.167,-18.548 31.07,0 49.167,15.438 49.167,38.079 v 21.095 c -14.504,-3.562 -28.524,-5.124 -41.416,-5.124 -55.919,0 -90.566,28.717 -90.566,72.468 0,22.819 9.347,41.771 24.656,53.953 11.845,9.54 27.299,14.923 44.735,14.923 27.347,0 49.602,-13.86 66.748,-41.254 h 1.015 v 34.051 h 0.016 20.788 c -9.653,10.523 -20.273,20.128 -31.521,28.926 -21.868,16.808 -46.701,30.054 -73.485,38.821 -24.14,7.767 -49.892,12.022 -76.643,12.022 -135.576,0 -245.464,-109.131 -245.464,-243.772 0,-66.813 27.073,-127.373 70.858,-171.383 0.854,-0.838 1.805,-1.708 2.659,-2.578 45.75,52.035 100.928,63.428 127.002,65.798 9.331,0.919 15.003,0.564 15.003,0.564 0,0 1.08,-5.366 1.757,-14.52 1.628,-22.593 0.999,-68.585 -23.85,-116.19 0.709,-0.193 1.418,-0.338 2.208,-0.435 16.115,-3.368 32.762,-5.124 49.828,-5.124 135.576,0 245.448,109.211 245.448,243.869 0,24.656 -3.69,48.426 -10.588,70.842 -2.385,7.685 -5.076,15.308 -8.186,22.689 M 401.41,418.811 c 8.364,-6.768 20.418,-10.555 34.937,-10.555 10.797,0 24.334,1.595 39.321,5.576 v 8.283 c 0,21.288 -7.381,38.838 -19.096,49.876 -8.831,8.525 -20.16,13.311 -32.697,13.311 -18.838,0 -32.939,-12.376 -35.244,-31.957 -0.274,-1.949 -0.435,-3.931 -0.435,-6.043 0,-11.828 4.834,-21.578 13.214,-28.491"
   id="path830" />

	</g>

</g>
  </g>
</svg>
