<svg height="172.240142" viewBox="0 0 300 88.701675" width="580.58475" xmlns="http://www.w3.org/2000/svg"><path d="m0 0-7.866 2.362 7.866 2.367zm2.584-17.322v-1.458h-10.891v1.439c0 2.183.911 4.606 5.418 4.606 3.999 0 5.473-2.145 5.473-4.587m-2.584-38.419-7.961 2.416 7.961 2.374zm-13.957 62.41v-8.126l13.489-4.644c-1.121.218-2.012.253-2.406.253-5.65 0-11.083-3.221-11.083-10.789v-8.681l13.421.016c-3.812-.746-4.841-4.206-6.154-8.51-.493-1.614-1.286-2.498-2.027-2.176-.643.275-.845 1.259-.676 2.459.256 1.826.874 3.283 1.641 4.692l-4.777 1.922c-.225-.436-2.09-3.546-2.09-7.44 0-5.446 2.658-8.912 6.597-8.912 3.502 0 5.542 2.153 6.693 6.102 1.229 4.244 1.731 5.322 2.964 5.196 1.051-.116 2.343-2.749-1.635-9.191l3.975-1.908-17.932-5.921v-8.12l22.294-7.675v6.407l-3.155.995v8.074l3.155.952v6.73l-2.179-.767c1.319 2.271 2.527 5.095 2.527 8.465 0 5.157-2.835 7.948-5.555 8.621h5.207v8.662c0 5.166-2.478 7.87-5.128 9.278l5.128-1.764v6.4l-3.155 1.03v8.067l3.155.929v6.738l-22.294-7.364" fill="#7dc242" transform="matrix(0 3.8062854 3.8062854 0 246.586393 55.64409)"/></svg>