<?xml version="1.0" encoding="utf-8"?>
<!-- Generator: Adobe Illustrator 16.0.0, SVG Export Plug-In . SVG Version: 6.00 Build 0)  -->
<!DOCTYPE svg PUBLIC "-//W3C//DTD SVG 1.1//EN" "http://www.w3.org/Graphics/SVG/1.1/DTD/svg11.dtd">
<svg version="1.1" id="Layer_1" xmlns="http://www.w3.org/2000/svg" xmlns:xlink="http://www.w3.org/1999/xlink" x="0px" y="0px"
	 width="636.336px" height="276.06px" viewBox="0 0 636.336 276.06" enable-background="new 0 0 636.336 276.06"
	 xml:space="preserve">
<g>
	<path fill="none" stroke="#575756" stroke-width="0.5" stroke-linecap="round" stroke-linejoin="round" d="M156.303,220.975
		L156.303,220.975"/>
</g>
<g>
	<path fill="none" stroke="#575756" stroke-width="0.5" stroke-linecap="round" stroke-linejoin="round" d="M156.303,220.975
		L156.303,220.975"/>
</g>
<g>
	<path fill="#A5C72E" d="M96.668,198.41C43.386,198.41,0,155.021,0,101.714C0,48.36,43.386,5.058,96.668,5.058h0.115h0.071
		c21.434,0.023,41.703,6.863,58.638,19.856c6.855,5.256,8.092,14.974,2.899,21.823c-5.23,6.751-14.957,8.005-21.833,2.857
		c-1.943-1.491-3.923-2.857-5.99-4.131c-0.116-0.06-0.261-0.152-0.399-0.234c-10.034-5.969-21.583-9.09-33.362-9.11h-0.023h-0.058
		h-0.058c-36.145,0-65.513,29.433-65.595,65.595c0.083,36.189,29.45,65.589,65.595,65.589h0.058h0.078
		c11.776,0,23.324-3.154,33.361-9.127c0.139-0.099,0.284-0.139,0.399-0.225c2.067-1.273,4.047-2.612,5.99-4.104
		c6.876-5.259,16.606-3.913,21.833,2.904c5.193,6.777,3.956,16.57-2.898,21.75c-16.935,13-37.204,19.856-58.638,19.909H96.78H96.668
		z M512.232,256.641v-63.872c8.501,3.385,17.697,5.642,27.459,5.642c53.263,0,96.645-43.389,96.645-96.699
		c0-53.354-43.382-96.66-96.645-96.66c-21.53,0-41.852,6.834-58.819,19.856c-6.853,5.26-8.117,14.977-2.897,21.823
		c5.274,6.758,15.013,8.012,21.858,2.838c11.48-8.797,25.256-13.452,39.861-13.452c36.146,0,65.585,29.436,65.585,65.595
		c0,36.187-29.438,65.585-65.585,65.585c-9.072,0-18.525-3.874-27.458-8.855v-5.597c0-8.565-7-15.554-15.572-15.554
		c-8.582,0-15.526,6.988-15.526,15.554v103.797c0,8.539,6.944,15.455,15.526,15.455
		C505.232,272.103,512.232,265.187,512.232,256.641 M318.049,172.417c12.106,11.324,27.19,19.572,44.055,23.519
		c51.945,11.997,104.038-20.331,116.121-72.332c12.096-51.81-20.298-103.929-72.22-116.081c-31.766-7.352-64.547,1.62-88.056,23.588
		C305.775,19.8,290.706,11.548,273.893,7.661c-51.964-12.129-104.035,20.275-116.208,72.21
		c-12.058,51.929,20.343,104.009,72.301,116.144c7.241,1.689,14.594,2.495,21.9,2.495
		C276.37,198.51,300.024,189.172,318.049,172.417 M266.835,37.901c23.722,5.55,42.271,23.598,48.479,47.055
		c2.171,8.312,10.73,13.225,19.005,11.023c8.308-2.23,13.287-10.71,11.034-18.998c-1.932-7.398-4.717-14.473-8.264-21.028
		c16.004-16.472,39.362-23.338,61.833-18.147c35.214,8.242,57.196,43.637,49.081,78.767c-8.24,35.242-43.671,57.224-78.86,49.041
		c-25.492-5.939-44.964-26.383-49.66-52.116c-1.501-8.45-9.617-14.083-18.016-12.476c-8.457,1.465-14.092,9.565-12.573,18.028
		c1.909,10.195,5.264,19.758,9.981,28.588c-15.843,16.246-39.294,23.294-61.845,18.114c-35.28-8.229-57.171-43.587-49.079-78.866
		c7.105-30.19,34.155-50.746,63.96-50.746C256.854,36.146,261.868,36.786,266.835,37.901"/>
</g>
</svg>
