<?xml version="1.0" encoding="UTF-8" standalone="no"?>
<svg
   xmlns:dc="http://purl.org/dc/elements/1.1/"
   xmlns:cc="http://creativecommons.org/ns#"
   xmlns:rdf="http://www.w3.org/1999/02/22-rdf-syntax-ns#"
   xmlns:svg="http://www.w3.org/2000/svg"
   xmlns="http://www.w3.org/2000/svg"
   xmlns:sodipodi="http://sodipodi.sourceforge.net/DTD/sodipodi-0.dtd"
   xmlns:inkscape="http://www.inkscape.org/namespaces/inkscape"
   width="300"
   height="93"
   viewBox="0 0 1000 317"
   version="1.0"
   id="svg2"
   sodipodi:version="0.32"
   inkscape:version="0.46"
   sodipodi:docname="1000px-Essar_Logo.svg"
   inkscape:output_extension="org.inkscape.output.svg.inkscape">
  <metadata
     id="metadata28">
    <rdf:RDF>
      <cc:Work
         rdf:about="">
        <dc:format>image/svg+xml</dc:format>
        <dc:type
           rdf:resource="http://purl.org/dc/dcmitype/StillImage" />
      </cc:Work>
    </rdf:RDF>
  </metadata>
  <defs
     id="defs26">
    <inkscape:perspective
       sodipodi:type="inkscape:persp3d"
       inkscape:vp_x="0 : 198.125 : 1"
       inkscape:vp_y="0 : 1000 : 0"
       inkscape:vp_z="1250 : 198.125 : 1"
       inkscape:persp3d-origin="625 : 132.08333 : 1"
       id="perspective30" />
  </defs>
  <sodipodi:namedview
     inkscape:window-height="750"
     inkscape:window-width="1280"
     inkscape:pageshadow="2"
     inkscape:pageopacity="0.0"
     guidetolerance="10.0"
     gridtolerance="10.0"
     objecttolerance="10.0"
     borderopacity="1.0"
     bordercolor="#666666"
     pagecolor="#ffffff"
     id="base"
     showgrid="false"
     inkscape:zoom="0.4352"
     inkscape:cx="625"
     inkscape:cy="198.125"
     inkscape:window-x="-8"
     inkscape:window-y="-8"
     inkscape:current-layer="svg2" />
  <g
     id="#f57f35ff">
    <path
       d="M 859.03,44.93 C 871.86,30.69 885.71,17.44 899.29,3.93 C 899.33,32.48 899.4,61.04 899.29,89.59 C 885.34,89.42 871.38,89.31 857.43,89.34 C 857.33,75.55 857.29,61.77 857.24,47.99 C 857.05,46.66 858.35,45.88 859.03,44.93 z"
       id="path5"
       style="opacity:1;fill:#f57f35" />
    <path
       d="M 908.44,97.94 C 936.45,98.26 964.46,98.15 992.47,98.27 C 980.65,110.2 968.84,122.14 956.99,134.05 C 954.48,136.4 951.79,139.36 948.03,139.17 C 934.63,139.46 921.23,139.28 907.84,139.18 C 907.72,125.43 907.4,111.66 908.44,97.94 z"
       id="path7"
       style="opacity:1;fill:#f57f35" />
  </g>
  <g
     id="#ef4138ff">
    <path
       d="M 806.08,98.19 C 835.05,98.22 864.01,98.12 892.98,98.21 C 879.82,111.86 866.04,124.9 853.19,138.86 C 823.74,139.55 794.28,139.3 764.83,139.19 C 778.05,125.01 791.84,111.35 806.08,98.19 z"
       id="path10"
       style="opacity:1;fill:#ef4138" />
    <path
       d="M 857.07,146.38 C 870.85,131.96 885.04,117.94 899.16,103.86 C 899.39,133 899.34,162.14 899.49,191.28 C 885.56,205.44 871.64,219.62 857.42,233.49 C 857.27,204.45 857.48,175.42 857.07,146.38 z"
       id="path12"
       style="opacity:1;fill:#ef4138" />
  </g>
  <g
     id="#373536ff">
    <path
       d="M 7.53,180.01 C 54.55,180.04 101.56,180.12 148.57,180.21 C 148.72,189.3 148.82,198.39 148.56,207.47 C 115.34,207.48 82.12,207.56 48.9,207.54 C 48.88,215.51 48.82,223.49 48.79,231.46 C 82.13,231.48 115.47,231.47 148.81,231.47 C 148.86,240.03 148.67,248.6 148.71,257.17 C 115.44,257.24 82.17,257.18 48.91,257.2 C 48.88,265.42 48.77,273.64 48.77,281.86 C 82.12,281.97 115.47,281.97 148.82,282.07 C 148.82,291.29 148.83,300.51 148.82,309.73 C 101.68,309.73 54.54,309.74 7.41,309.73 C 7.51,266.49 7.49,223.25 7.53,180.01 z"
       id="path15"
       style="opacity:1;fill:#373536" />
    <path
       d="M 192.71,182.68 C 201.57,180.17 210.87,180.24 220,180.03 C 249.76,180.05 279.52,180.13 309.28,180.13 C 309.31,189.26 309.28,198.38 309.3,207.51 C 283.19,207.57 257.09,207.5 230.98,207.54 C 226.21,207.71 220.83,207.65 216.98,210.92 C 211.11,216.69 214.45,228.9 222.94,229.91 C 245.9,232.47 269.31,227.91 292.05,232.99 C 298.61,234.28 304.59,237.95 308.87,243.06 C 316.23,251.9 318.53,264.06 317.43,275.29 C 316.24,284.81 312.73,294.88 304.71,300.75 C 295.39,307.71 283.35,309.46 272.02,309.72 C 238.64,309.74 205.27,309.8 171.89,309.86 C 171.9,300.42 171.77,290.98 171.83,281.54 C 202.23,281.42 232.64,282.03 263.02,281.03 C 269.49,280.36 272.65,272.78 271.28,267.02 C 270.53,262.53 266.75,258.69 262.11,258.4 C 241.06,256.04 219.74,259.58 198.76,256.17 C 192.88,255.2 186.77,253.9 181.99,250.09 C 173.7,244.06 169.19,234.03 168.16,224.02 C 166.88,212.77 169.58,200.68 177.11,192.01 C 181.12,187.29 186.81,184.31 192.71,182.68 z"
       id="path17"
       style="opacity:1;fill:#373536" />
    <path
       d="M 338.7,187.66 C 347.89,181.6 359.22,180.12 370,180.2 C 402.2,180.2 434.41,179.94 466.61,180.12 C 466.43,189.25 466.58,198.39 466.52,207.53 C 437.65,207.59 408.77,207.16 379.91,207.99 C 369.28,208.47 367.56,226.57 377.8,229.18 C 402.33,233.73 427.9,226.55 452.05,234.04 C 460.17,236.18 466.68,242.47 470.15,249.99 C 474.6,259.1 474.76,269.63 473.27,279.48 C 472.04,286.87 469.05,294.39 463.12,299.26 C 454.28,306.84 442.29,309.37 430.92,309.64 C 396.79,309.79 362.65,310.06 328.52,309.45 C 328.77,300.3 328.69,291.15 328.36,282.01 C 357.56,280.75 386.81,282.28 416.02,281.18 C 418.59,281.05 421.4,281.17 423.6,279.59 C 430.3,274.84 429.58,262.35 421.71,259.18 C 415.61,257.61 409.23,257.76 402.98,257.51 C 383.6,257.2 363.56,259.8 344.85,253.38 C 333.61,249.62 326.94,238.1 325.38,226.86 C 324.4,218.51 325.04,209.85 327.71,201.86 C 329.63,196.05 333.47,190.88 338.7,187.66 z"
       id="path19"
       style="opacity:1;fill:#373536" />
    <path
       d="M 533.43,180.23 C 553.65,180.01 573.86,180.24 594.08,180.08 C 597.84,179.72 599.07,183.89 600.41,186.57 C 618.56,227.66 636.72,268.75 655,309.78 C 639.21,309.67 623.42,309.79 607.63,309.62 C 604.54,301.47 601.14,293.44 597.62,285.47 C 575.51,285.47 553.41,285.47 531.3,285.4 C 527.29,293.31 523.96,301.54 520.53,309.71 C 505.68,309.82 490.83,309.76 475.98,309.66 C 495.28,266.59 514.43,223.44 533.43,180.23 M 564.21,205.46 C 556.91,222.24 550.14,239.24 542.78,255.99 C 556.99,256.11 571.19,256.12 585.4,255.99 C 578.39,239.12 571.34,222.27 564.21,205.46 z"
       id="path21"
       style="opacity:1;fill:#373536" />
    <path
       d="M 667.41,180.14 C 704.26,180.03 741.12,179.96 777.97,180.42 C 789.62,180.71 802.29,183.77 810.3,192.84 C 816.56,199.95 817.1,209.92 817.58,218.93 C 818.08,231.54 813.3,245.5 801.95,252.19 C 800.18,252.75 801.96,253.81 802.7,254.16 C 808.89,257.68 813.55,263.8 815.22,270.74 C 818.6,283.54 816.52,296.85 816.9,309.89 C 802.57,309.84 788.23,309.88 773.9,309.86 C 772.78,299.07 775.76,288.13 773.32,277.44 C 772.08,273.17 769.68,268.23 764.97,267.11 C 746.68,263.8 728.05,265.71 709.6,265.71 C 709.29,280.42 709.56,295.15 709.46,309.87 C 695.44,309.79 681.43,309.8 667.41,309.79 C 667.41,266.58 667.42,223.36 667.41,180.14 M 709.94,207.32 C 709.23,217.38 709.27,227.48 709.84,237.55 C 728.13,236.45 746.63,239.21 764.78,235.85 C 777.04,232.68 776.73,211.76 764.57,208.68 C 746.45,206.25 728.14,208.17 709.94,207.32 z"
       id="path23"
       style="opacity:1;fill:#373536" />
  </g>
</svg>
