<svg xmlns:xlink="http://www.w3.org/1999/xlink" class="h-auto max-w-[70px] lg:max-w-full" width="88" height="52" viewBox="0 0 88 52" fill="none" xmlns="http://www.w3.org/2000/svg">
                <g clip-path="url(#clip0_1218_11346)" fill="none">
                    <path d="M54.3965 14.2402L52.718 19.4485H41.9812L40.7991 22.987H50.1592L48.4806 28.0012H39.1205L37.9383 31.933H49.0742L47.4008 37.2433H29.1719L36.6589 14.2402H54.3965Z" fill="#154182"></path>
                    <path d="M75.1825 19.4485H66.6106L60.797 37.2433H53.8984L59.712 19.4485H55.183L56.8564 14.2402H76.856L75.1825 19.4485Z" fill="#154182"></path>
                    <path d="M32.324 14.2414H25.3282L21.2905 26.7259C20.1083 30.4636 18.9261 32.3273 16.1677 32.3273C14.4943 32.3273 13.0153 32.2303 11.4391 31.9342L9.76562 37.1424C11.4391 37.5356 13.9058 37.7296 16.4646 37.7296C23.4603 37.7296 25.4306 35.2736 27.8922 27.9003L32.324 14.2363V14.2414Z" fill="#154182"></path>
                    <path d="M42.3997 0.499788C23.3161 0.749988 8.05032 6.93351 2.31861 9.60912C0.885685 10.278 -0.0201306 11.7179 0.000339829 13.3008C0.0412806 16.5279 3.70036 18.4121 6.33081 16.5432C14.1505 10.9827 29.5494 3.10391 54.3083 2.78223C54.3083 2.78223 59.257 2.62904 66.3193 3.1754C54.9634 0.336392 42.3997 0.499788 42.3997 0.499788Z" fill="#FFCE3A"></path>
                    <path d="M44.6618 51.4937C63.7454 51.2486 79.0163 45.06 84.7429 42.3895C86.1758 41.7206 87.0816 40.2806 87.0612 38.6977C87.0202 35.4707 83.3611 33.5865 80.7307 35.4553C72.911 41.0108 57.5121 48.8896 32.7532 49.2112C32.7532 49.2112 27.8045 49.3644 20.7422 48.8181C32.1033 51.6622 44.6618 51.4937 44.6618 51.4937Z" fill="#FFCE3A"></path>
                </g>
                <defs>
                    <clipPath id="clip0_1218_11346">
                        <rect width="87.0606" height="51" fill="white" transform="translate(0 0.5)"></rect>
                    </clipPath>
                </defs>
            </svg>