<svg version="1.1" id="Layer_1" xmlns:x="ns_extend;" xmlns:i="ns_ai;" xmlns:graph="ns_graphs;" xmlns="http://www.w3.org/2000/svg" xmlns:xlink="http://www.w3.org/1999/xlink" x="0px" y="0px" viewBox="0 0 143.8 64" style="enable-background:new 0 0 143.8 64;" xml:space="preserve">
 <style type="text/css">
  .st0{fill:#177530;}
	.st1{fill:#FCBC02;}
 </style>
 <metadata>
  <sfw xmlns="ns_sfw;">
   <slices>
   </slices>
   <sliceSourceBounds bottomLeftOrigin="true" height="64" width="143.8" x="123.5" y="-117.8">
   </sliceSourceBounds>
  </sfw>
 </metadata>
 <g>
  <path class="st0" d="M33.6,64c-5.2,0-9.1-3.7-9.1-8.6c0-4.9,3.9-8.6,9-8.6c5.2,0,9.1,3.7,9.1,8.6C42.6,60.2,38.7,64,33.6,64
		 M33.6,50.9c-2.4,0-4.2,1.9-4.2,4.4c0,2.5,1.8,4.4,4.2,4.4c2.4,0,4.1-1.9,4.1-4.4C37.7,52.8,35.9,50.9,33.6,50.9 M74.3,63.4V47.3
		c0-0.1-0.1-0.2-0.2-0.2h-4.4c-0.1,0-0.2,0.1-0.2,0.2v16.1c0,0.1,0.1,0.2,0.2,0.2h4.4C74.2,63.6,74.3,63.5,74.3,63.4 M101.1,64
		c-5.2,0-9.1-3.7-9.1-8.6c0-4.9,3.9-8.6,9-8.6c5.2,0,9.1,3.7,9.1,8.6C110.1,60.2,106.3,64,101.1,64 M101.1,50.9
		c-2.4,0-4.2,1.9-4.2,4.4c0,2.5,1.8,4.4,4.2,4.4c2.4,0,4.1-1.9,4.1-4.4C105.2,52.8,103.5,50.9,101.1,50.9 M127.9,63.4V53.1
		c0-4.3-2-6.4-5.9-6.4c-2.6,0-4.2,1.2-5.1,2.2v-1.6c0-0.1-0.1-0.2-0.2-0.2h-4.2c-0.1,0-0.2,0.1-0.2,0.2v16.1c0,0.1,0.1,0.2,0.2,0.2
		h4.4c0.1,0,0.2-0.1,0.2-0.2V56c0-0.8,0.1-1.4,0.3-1.9c0.5-1.8,2-2.8,3.7-2.8c1.5,0,2,0.7,2,2.7v9.5c0,0.1,0.1,0.2,0.2,0.2h4.4
		C127.8,63.6,127.9,63.5,127.9,63.4 M22.1,63.6h-4.4c-0.1,0-0.2-0.1-0.2-0.2c0-5.1-0.4-10.8-0.5-12.6c-1.6,2.1-3.1,5-4.3,7.7
		c0,0.1-0.1,0.1-0.2,0.1H9.9c-0.1,0-0.2-0.1-0.2-0.1c-1.2-2.8-2.7-5.6-4.3-7.7c-0.1,1.8-0.5,7.5-0.5,12.6c0,0.1-0.1,0.2-0.2,0.2H0.2
		c-0.1,0-0.2-0.1-0.2-0.2c0-6.9,0.5-15.9,1.6-20.6c0-0.1,0.1-0.2,0.2-0.2h3.5c0.1,0,0.1,0,0.2,0.1c2.3,2.6,4.2,5.4,5.6,8.2
		c1.4-2.8,3.4-5.7,5.6-8.2c0,0,0.1-0.1,0.2-0.1h3.5c0.1,0,0.2,0.1,0.2,0.2c1.1,4.7,1.6,13.7,1.6,20.6C22.3,63.5,22.2,63.6,22.1,63.6
		 M49.8,63.4v-6.4c0-1,0.1-1.7,0.3-2.4c0.7-2.2,2.4-2.9,3.8-2.9c0.4,0,0.7,0,0.8,0c0.1,0,0.1,0,0.2-0.1c0,0,0.1-0.1,0.1-0.2v-4.3
		c0-0.1-0.1-0.2-0.2-0.2c-0.1,0-0.4,0-0.6,0c-1.7,0-3.4,0.9-4.5,2.5v-2c0-0.1-0.1-0.2-0.2-0.2h-4.2c-0.1,0-0.2,0.1-0.2,0.2v16.1
		c0,0.1,0.1,0.2,0.2,0.2h4.4C49.7,63.6,49.8,63.5,49.8,63.4 M61.9,63.6h-4.4c-0.1,0-0.2-0.1-0.2-0.2V47.3c0-0.1,0.1-0.2,0.2-0.2h4.2
		c0.1,0,0.2,0.1,0.2,0.2v2c1.1-1.5,2.7-2.5,4.5-2.5c0.2,0,0.5,0,0.6,0c0.1,0,0.2,0.1,0.2,0.2v4.3c0,0.1,0,0.1-0.1,0.2
		S67,51.7,67,51.6c-0.1,0-0.4,0-0.8,0c-1.4,0-3.1,0.8-3.8,2.9c-0.2,0.7-0.3,1.4-0.3,2.4v6.4C62.1,63.5,62,63.6,61.9,63.6 M90.3,58.4
		L90.3,58.4c0,3.5-2.6,5.4-7,5.4c-2.5,0-4.6-0.9-6.8-2.4c-0.1,0-0.1-0.1-0.1-0.2c0-0.1,0-0.1,0-0.1l1.9-3c0-0.1,0.1-0.1,0.2-0.1
		c0,0,0.1,0,0.1,0l0,0c1.9,1.2,3.3,1.8,4.9,1.8c1.1,0,1.7-0.3,1.8-1v-0.1c0-0.8-0.7-1.2-2.4-1.7c-0.2-0.1-0.5-0.1-0.7-0.2
		c-2.8-0.8-5.4-2-5.4-5.2v-0.1c0-3.2,2.6-5.2,6.6-5.2c2,0,3.9,0.6,5.7,1.6c0.1,0,0.1,0.1,0.1,0.2c0,0,0,0.1,0,0.1l-1.8,3
		c0,0.1-0.1,0.1-0.2,0.1c0,0-0.1,0-0.1,0l0,0c-1.6-0.8-2.7-1.2-3.9-1.2c-1,0-1.7,0.4-1.7,1.1v0.1c0,0.8,1,1.1,2.6,1.6
		c0.2,0.1,0.4,0.1,0.6,0.2C87.7,54,90.3,55.3,90.3,58.4 M138.5,53.3c-0.2-0.1-0.4-0.1-0.6-0.2c-1.6-0.5-2.6-0.8-2.6-1.6v-0.1
		c0-0.6,0.7-1.1,1.7-1.1c1.1,0,2.2,0.4,3.9,1.2l0,0c0,0,0.1,0,0.1,0c0.1,0,0.2-0.1,0.2-0.1l1.8-3c0,0,0-0.1,0-0.1
		c0-0.1,0-0.2-0.1-0.2c-1.8-1-3.7-1.6-5.7-1.6c-4,0-6.6,2-6.6,5.2v0.1c0,3.2,2.5,4.4,5.4,5.2c0.2,0.1,0.5,0.1,0.7,0.2
		c1.7,0.5,2.4,0.9,2.4,1.7v0.1c-0.1,0.6-0.7,1-1.8,1c-1.7,0-3.1-0.6-4.9-1.8l0,0c0,0-0.1,0-0.1,0c-0.1,0-0.1,0-0.2,0.1l-1.9,3
		c0,0,0,0.1,0,0.1c0,0.1,0,0.1,0.1,0.2c2.2,1.6,4.3,2.4,6.8,2.4c4.4,0,7-1.9,7-5.3v-0.1C143.8,55.4,141.1,54.1,138.5,53.3
		 M74.9,41.1c0,1.7-1.3,3-3,3c-1.7,0-3-1.3-3-3c0-1.7,1.3-3,3-3C73.5,38.1,74.9,39.5,74.9,41.1">
  </path>
  <path class="st1" d="M68.9,28.9c0,1.7-1.4,3.1-3.1,3.1c-1.7,0-3.1-1.4-3.1-3.1c0-1.7,1.4-3.1,3.1-3.1
		C67.5,25.8,68.9,27.2,68.9,28.9 M82.8,16.2c0,1.7-1.4,3.1-3.1,3.1c-1.7,0-3.1-1.4-3.1-3.1c0-1.7,1.4-3.1,3.1-3.1
		C81.4,13.1,82.8,14.5,82.8,16.2 M75.5,6.6c0,4.3-3.7,6.6-3.7,6.6s-3.7-2.4-3.7-6.6c0-4.3,3.7-6.6,3.7-6.6S75.5,2.4,75.5,6.6
		 M59.9,13.1c0,0-0.9,4.3,2.1,7.3c3,3,7.3,2.1,7.3,2.1s0.9-4.3-2.1-7.3C64.1,12.2,59.9,13.1,59.9,13.1 M54.9,20.2
		c3.7,2.1,3.9,6.5,3.9,6.5s-3.9,2-7.6-0.1c-3.7-2.1-3.9-6.5-3.9-6.5S51.2,18.1,54.9,20.2 M53,34.4c0,0,1,4.3,5,5.7
		c4,1.5,7.5-1.2,7.5-1.2s-1-4.3-5-5.7C56.5,31.8,53,34.4,53,34.4 M79.7,29.8c-1.8,3.9-6.1,4.5-6.1,4.5s-2.3-3.7-0.5-7.6
		c1.8-3.9,6.1-4.5,6.1-4.5S81.5,25.9,79.7,29.8 M96.4,20.1c0,0-3.9-2-7.6,0.1c-3.7,2.1-3.9,6.5-3.9,6.5s3.9,2,7.6-0.1
		C96.2,24.4,96.4,20.1,96.4,20.1 M85.9,40.1c-4,1.5-7.5-1.2-7.5-1.2c0,0,1-4.3,5-5.7c4-1.5,7.5,1.2,7.5,1.2S89.9,38.7,85.9,40.1">
  </path>
 </g>
</svg>