<svg version="1.2" baseProfile="tiny-ps" xmlns="http://www.w3.org/2000/svg" viewBox="0 0 1628 1507" width="1628" height="1507">
	<title>Shell_logo-svg</title>
	<style>
		tspan { white-space:pre }
		.shp0 { fill: #ffcd00 } 
		.shp1 { fill: #da291c } 
	</style>
	<path id="Layer" class="shp0" d="M814.11 1444.41C801.13 1444.41 788.81 1440.45 778.47 1432.97L738.65 1403.82L359.92 1403.82L324.94 1125.3L72.71 941.71C65.56 900.57 61.93 858 61.93 814.77C61.93 399.96 399.3 62.7 814.11 62.7C1228.81 62.7 1566.18 400.07 1566.18 814.77C1566.18 857.12 1562.55 899.8 1555.4 941.82L1303.28 1125.41L1268.19 1403.93L889.57 1403.93L849.53 1433.41C839.74 1440.45 826.98 1444.41 814.11 1444.41Z" />
	<path id="Layer" fill-rule="evenodd" class="shp1" d="M718.41 1465.86L305.25 1465.86L266.86 1159.62L16.5 977.35C5.28 924 0 869.44 0 814.66C0 365.2 364.65 0.66 814 0.66C1263.35 0.66 1628 365.2 1628 814.66C1628 869.44 1622.5 924 1611.61 977.35L1361.25 1159.62L1322.64 1465.86L909.81 1465.86L885.94 1483.24C864.93 1498.42 839.63 1506.34 814 1506.34C788.37 1506.34 763.29 1498.53 742.17 1483.24L718.41 1465.86ZM775.72 1355.75C786.83 1363.89 800.25 1368.51 814 1368.51C827.75 1368.51 841.17 1363.78 852.5 1355.75L896.72 1323.52L1197.13 1323.52L1227.49 1080.86L1474.55 901.01C1482.03 872.74 1485.55 844.03 1485.55 814.77C1485.55 766.15 1475.54 718.08 1455.74 673.75L1017.83 1116.28L1443.53 590.92C1426.59 522.72 1389.41 461.23 1337.16 414.7L955.46 1073.16L1293.6 352.44C1249.82 294.14 1188.88 251.24 1119.47 229.79L885.94 1047.42L1056.44 196.02C1004.52 166.65 945.89 151.36 886.6 151.36C873.73 151.36 861.3 151.91 848.65 153.23L814 1038.62L779.24 153.12C766.81 151.8 754.27 151.25 741.62 151.25C681.89 151.25 623.81 166.54 571.67 195.91L742.17 1047.31L508.86 229.68C439.12 251.13 378.18 293.92 334.51 352.33L672.87 1073.16L291.17 414.7C238.59 461.23 201.52 522.72 184.8 590.92L610.5 1116.17L172.59 673.64C152.57 717.97 142.34 766.04 142.34 814.66C142.34 843.92 146.08 872.63 153.34 900.9L400.84 1080.75L430.98 1323.41L731.39 1323.41L775.72 1355.75Z" />
</svg>