<svg height="266.27053911388697" viewBox="0 0 1000.0 708.63705" width="375.55788309433984" xmlns="http://www.w3.org/2000/svg"><path d="M219.92062,0h174.045l40.06067,108.42.04422.09468,3.21179,1.301,10.24309,27.3h.08819c36.11117.82518,45.48607,11.15453,47.87341,17.27439,1.82288,4.64395.95421,10.0261-2.51758,16.1027-5.38191-5.55564-17.40439-10.28659-40.10417-11.15453,7.42178,20.00894,15.104,41.0156,15.104,41.0156-17.88185,18.57631-40.84187,46.354-29.34011,68.87982,8.20322,16.059,30.90276,24.21893,67.49139,24.26219,117.92516,0,331.33664-81.988,357.55171-93.61972a14.2627,14.2627,0,0,0,8.59369-12.19645,16.444,16.444,0,0,1,12.80392,16.88366,16.65755,16.65755,0,0,1-10.06935,14.40958C848.91547,230.56139,717.79568,279.91,609.6794,302.87024L563.93285,416.97613H429.60127c-27.474,0-40.97211-1.6912-59.59191-43.61945-9.76562-21.96208-42.40452-105.25147-75.69437-187.93389-50.955,15.84222-117.70817,39.236-157.3351,60.02589a15.88123,15.88123,0,0,1-23.74147-14.10729,16.34213,16.34213,0,0,1,.86771-4.86118,13.44444,13.44444,0,0,0,7.50876,2.38758h.21723a13.5023,13.5023,0,0,0,6.59708-1.73542c45.61631-23.95845,125.78114-50.1305,156.94438-59.93938l-9.89586-24.30543.95421-1.86758Zm0,0L276.431,141.01565m245.70291,3.64577c7.07479,19.054.34675,37.93405-20.39918,57.81276-4.34023,3.99324-42.0138,39.236-36.97912,54.427,2.3436,6.98781,13.06416,10.41683,32.81263,10.41683,29.47035,0,78.03821-7.68274,134.8958-21.35413L731.07515.00048h-174.045L509.287,129.08064c6.25009,4.42721,10.59032,9.41816,12.84717,15.58126M950.86648,628.51571q0,37.2396-23.61122,58.637-23.50274,21.48388-66.62321,21.48437-42.77348,0-66.4932-21.48437-23.63285-21.35412-23.698-58.637,0-37.56545,23.698-58.89746,23.69809-21.28924,66.4932-21.31039,42.90361,0,66.57972,21.48437,23.63284,21.35412,23.65447,58.724m-52.95133.25183c0-8.50695-.95422-16.31945-2.82108-22.22256a37.37653,37.37653,0,0,0-7.68225-14.23608,28.196,28.196,0,0,0-11.762-7.76876,46.97858,46.97858,0,0,0-14.974-2.21409,50.58176,50.58176,0,0,0-14.36632,1.90843,29.05491,29.05491,0,0,0-11.849,7.42226c-3.38553,3.47227-6.03311,8.24647-8.073,14.27934-1.99661,6.07659-3.03806,14.01933-3.03806,22.83s.95422,16.4492,2.90806,22.04858A37.69157,37.69157,0,0,0,833.679,664.2698a27.333,27.333,0,0,0,11.762,7.50876,47.53107,47.53107,0,0,0,15.71174,2.38758,44.73079,44.73079,0,0,0,14.40981-2.38758,26.4101,26.4101,0,0,0,11.71875-7.118,38.65147,38.65147,0,0,0,7.94273-13.71512c1.73614-5.33842,2.69108-13.02115,2.69108-22.17882M354.122,600.98887V704.89516H300.30244l.04421-7.03153c-25.91157,15.06077-64.14936,8.507-68.79332,7.76924a45.81047,45.81047,0,0,1-13.32464-87.02215c1.77963-.82518,18.01209-9.98285,55.16494-9.98285h29.25361c0-8.29021-3.03806-17.27438-9.59188-21.39786-16.62343-10.54658-80.16508-1.12747-80.16508-1.12747l12.23947-33.15985a239.37239,239.37239,0,0,1,42.665-4.47047q45.11711,0,65.71177,12.97742,20.63792,12.95578,20.61641,39.53971m-51.95315,36.54514c-30.72926,0-43.27246,2.16987-43.27246,2.16987-3.16854.6959-8.33346,2.38758-12.02248,6.55383a16.20588,16.20588,0,0,0,9.20117,27.17024c2.34384.43445,46.09377,6.68407,46.09377-17.53486Zm-139.67-130.2951L109.4182,648.776,56.81409,507.23939H0l67.79513,169.0971a44.87983,44.87983,0,0,0,41.7968,28.51542h30.64228l78.64568-197.613Zm217.7517,30.20806V704.89564h21.91834a30.24847,30.24847,0,0,0,30.25156-30.25179V507.23939H410.45955a30.20222,30.20222,0,0,0-30.20831,30.20806m247.78628,83.16012s.08819,12.283.04421,16.92692H506.20684c.47771,6.94455,2.60409,36.84887,55.90265,36.84887,6.38033,0,21.96183,1.56241,60.85058-5.20865v34.24455c-32.29167,5.81612-57.552,4.99143-66.53646,4.99143-93.099,0-102.17016-53.77627-102.17016-78.94966,0-25.43387,10.9808-80.98977,93.229-80.98977,26.77952,0,46.875,6.16311,60.37335,18.66281,13.1509,12.10947,20.1822,30.55553,20.1822,53.47254m-42.144-11.97922c-.52121-10.24333-3.1683-26.34555-38.67177-26.34555-36.37164,0-39.4097,18.70654-40.14765,26.34555Zm127.0833-59.89565c-24.86989,1.04241-59.33143,13.88862-59.33143,49.82629V704.89516H705.599v-89.974c0-23.437,17.27438-33.07286,56.85758-23.437V552.98546s-15.53824-4.644-38.23778-4.644c-3.60252,0-7.335.12592-11.24128.39072M1000,568.52394a19.19012,19.19012,0,1,1-5.59865-13.54162A18.52412,18.52412,0,0,1,1000,568.52394m-8.89767,10.28611a14.56468,14.56468,0,0,0,0-20.57269,14.35832,14.35832,0,0,0-20.48618,0,14.51684,14.51684,0,1,0,20.48618,20.57269m.315-1.38891h-6.38274l-5.25191-6.59708H978.611v6.59708h-4.99118V558.75832h6.901a25.39723,25.39723,0,0,1,2.99529.12592,6.56881,6.56881,0,0,1,2.29915.82518,4.7713,4.7713,0,0,1,1.90867,1.77963,5.86989,5.86989,0,0,1-.56373,6.12033,7.20377,7.20377,0,0,1-2.47553,1.86758Zm-12.80368-10.41683h.693a10.26265,10.26265,0,0,0,1.77963-.12591,2.62922,2.62922,0,0,0,1.17168-.47867,1.972,1.972,0,0,0,.56374-.73723,3.32933,3.32933,0,0,0,.22059-1.21589,2.06147,2.06147,0,0,0-.22059-.91024,1.241,1.241,0,0,0-.60795-.608,2.0191,2.0191,0,0,0-1.04241-.34651c-.39048-.03172-.866-.09468-1.51818-.09468h-1.04241Z" fill="#006eab"/><path d="M287.67249,169.01011c-51.04171,15.84174-118.22913,39.323-158.02956,60.19986a15.43867,15.43867,0,0,1-8.073,2.08192,15.87272,15.87272,0,0,1-6.42359-30.29553c45.92-21.39738,110.80711-44.27065,161.2846-59.93938q5.53389,13.80211,11.24128,27.95169" fill="#ffcf00"/><path d="M858.93941,170.35336a16.48324,16.48324,0,0,0-8.46346,1.90843C696.65662,238.234,477.169,285.45648,467.09942,256.15962c-4.86118-14.10584,36.28467-51.86592,36.28467-51.86592,19.44449-18.62,29.12336-38.62851,21.05039-60.50359-8.89744-24.08869-51.69267-35.72045-90.36443-35.32973,1.99662,5.46865,6.16334,16.75342,11.45826,31.03324.651.03172,1.38891.03172,1.99662.03172,30.64228.693,42.795,8.28972,45.70305,15.712,3.38553,8.76743-5.3819,19.09726-9.54863,23.65471C480.64129,182.19082,465.537,199.335,465.537,199.335c-15.321,15.885-42.01379,45.65956-29.07987,71.00644C476.64806,349.16082,818.96573,222.425,864.66878,202.069a16.74148,16.74148,0,0,0,10.06936-14.36632,16.54156,16.54156,0,0,0-15.79873-17.36137" fill="#ffcf00"/></svg>